<svg width="70" height="106" viewBox="0 0 70 106" fill="none" xmlns="http://www.w3.org/2000/svg">
<path fill-rule="evenodd" clip-rule="evenodd" d="M44.1605 101.734C44.1605 104.084 37.4114 106 34.9618 106C32.5059 106 25.7632 104.084 25.7632 101.734L30.5092 51.0437C30.5092 48.6868 32.5059 46.7773 34.9618 46.7773C37.4178 46.7773 39.4144 48.6868 39.4144 51.0437L44.1605 101.734Z" fill="#8BDFE2"/>
<path fill-rule="evenodd" clip-rule="evenodd" d="M38.0113 22.9413C38.0113 24.8108 36.6717 26.3197 35.0259 26.3197C33.3673 26.3197 32.0341 24.8108 32.0341 22.9413V3.37843C32.0341 1.51562 33.3673 0 35.0259 0C36.6717 0 38.0113 1.51562 38.0113 3.37843V22.9413Z" fill="#8BDFE2"/>
<path fill-rule="evenodd" clip-rule="evenodd" d="M5.28648 59.2695C3.59603 60.4913 1.44627 60.2843 0.463892 58.8221C-0.492972 57.3599 0.0747679 55.1699 1.75885 53.9548L19.4353 41.1354C21.1194 39.9203 23.2819 40.1139 24.2515 41.5761C25.2211 43.045 24.647 45.2283 22.9566 46.4501L5.28648 59.2695Z" fill="#8BDFE2"/>
<path fill-rule="evenodd" clip-rule="evenodd" d="M68.2353 52.6595C69.0559 53.1871 69.6431 54.0338 69.8679 55.0139C70.0927 55.994 69.9369 57.0274 69.4346 57.8874C68.8956 58.7239 68.0612 59.302 67.115 59.4949C66.1689 59.6877 65.1882 59.4793 64.3888 58.9156L46.2976 46.7439C45.8905 46.4827 45.5364 46.1401 45.2558 45.7356C44.9751 45.3311 44.7734 44.8728 44.662 44.3867C44.5506 43.9006 44.5319 43.3963 44.6067 42.9026C44.6816 42.4089 44.8487 41.9355 45.0984 41.5094C45.6383 40.6778 46.4706 40.1036 47.4136 39.9122C48.3567 39.7208 49.3338 39.9277 50.1315 40.4878L68.2353 52.6595Z" fill="#8BDFE2"/>
<path fill-rule="evenodd" clip-rule="evenodd" d="M31.7981 32.9698H37.5776V39.2326H31.7981V32.9698Z" fill="#8BDFE2"/>
</svg>
