<svg width="19" height="17" viewBox="0 0 19 17" fill="none" xmlns="http://www.w3.org/2000/svg">
<path d="M8.1253 14.5392C9.92808 14.5389 11.6789 13.9989 13.099 13.0053L17.5639 17L19 15.7151L14.5351 11.7204C15.6463 10.4498 16.2502 8.88296 16.2506 7.26962C16.2506 3.26133 12.6054 0 8.1253 0C3.64521 0 0 3.26133 0 7.26962C0 11.2779 3.64521 14.5392 8.1253 14.5392ZM8.1253 1.8174C11.4861 1.8174 14.2193 4.26272 14.2193 7.26962C14.2193 10.2765 11.4861 12.7218 8.1253 12.7218C4.76447 12.7218 2.03133 10.2765 2.03133 7.26962C2.03133 4.26272 4.76447 1.8174 8.1253 1.8174Z" fill="#4A4F5D"/>
</svg>
