<svg width="19" height="19" viewBox="0 0 19 19" fill="none" xmlns="http://www.w3.org/2000/svg">
<path fill-rule="evenodd" clip-rule="evenodd" d="M9 1.76025e-08C6.6129 0.000149202 4.32363 0.948563 2.63581 2.6366C0.947979 4.32464 -0.000149167 6.61403 1.76025e-08 9.00113C0.000149202 11.3882 0.948563 13.6775 2.6366 15.3653C4.32464 17.0531 6.61403 18.0013 9.00112 18.0011C11.3882 18.001 13.6775 17.0526 15.3653 15.3645C17.0531 13.6765 18.0013 11.3871 18.0011 9C18.001 6.6129 17.0526 4.32363 15.3645 2.63581C13.6765 0.947979 11.3871 -0.000149167 9 1.76025e-08V1.76025e-08ZM8.946 16.875C6.85742 16.875 4.85438 16.0453 3.37753 14.5685C1.90068 13.0916 1.071 11.0886 1.071 9C1.071 6.91142 1.90068 4.90838 3.37753 3.43153C4.85438 1.95468 6.85742 1.125 8.946 1.125C11.0346 1.125 13.0376 1.95468 14.5145 3.43153C15.9913 4.90838 16.821 6.91142 16.821 9C16.821 11.0886 15.9913 13.0916 14.5145 14.5685C13.0376 16.0453 11.0346 16.875 8.946 16.875Z" fill="#C4C4C4"/>
<path fill-rule="evenodd" clip-rule="evenodd" d="M3.27488 3.01947C2.97113 4.53147 4.10175 6.84335 6.50588 7.40585C8.90888 7.96835 7.87613 7.50035 7.50263 6.74997C7.12688 5.9996 7.46325 5.4371 8.04488 5.25035C8.62763 5.06247 8.48025 5.57997 9.34425 4.49997C9.5625 2.24997 7.68825 4.4696 7.5015 3.53247C9.35775 1.37585 6.63975 0.562471 5.85113 0.843721C5.0625 1.12497 3.57863 1.50635 3.27488 3.01947Z" fill="#C4C4C4"/>
<path fill-rule="evenodd" clip-rule="evenodd" d="M7.67814 8.65575C7.53864 8.71762 6.88839 9.12375 6.66451 9.405C6.44064 9.68624 6.34276 10.2802 6.66451 10.53C6.98626 10.7809 6.64651 11.9689 7.51389 12.1871C8.38126 12.4054 9.24976 12.5325 9.28239 13.2187C9.31276 13.905 9.20139 15.4991 8.78401 15.6566C9.34651 15.9682 10.7156 14.3122 11.1971 13.437C11.6798 12.5629 11.8406 11.3119 11.808 10.9991C11.7754 10.6875 12.0004 10.0316 12.0971 9.18787C12.1928 8.34412 11.4559 8.28787 11.3603 7.91325C11.2624 7.5375 11.1319 7.12462 7.67814 8.65575Z" fill="#C4C4C4"/>
<path fill-rule="evenodd" clip-rule="evenodd" d="M14.7116 4.5C14.7116 4.5 12.4481 5.46862 13.9871 6.9075C15.5239 8.34412 16.3069 9.70875 16.2315 10.0215C16.1617 10.332 14.679 11.9407 15.5306 11.8147C16.3867 11.6899 17.0179 10.0024 17.154 9.00113C17.2879 7.99988 16.1145 6.03225 16.0661 5.877C16.0256 5.71837 15.2539 4.51687 14.7116 4.5Z" fill="#C4C4C4"/>
</svg>
